<svg width="153" height="29" viewBox="0 0 153 29" fill="none" xmlns="http://www.w3.org/2000/svg">
<path d="M35.0763 23H31.7013L37.8462 5.54545H41.7496L47.9031 23H44.5281L39.8661 9.125H39.7298L35.0763 23ZM35.1871 16.1562H44.3917V18.696H35.1871V16.1562ZM58.4094 17.4943V9.90909H61.4947V23H58.5032V20.6733H58.3668C58.0714 21.4062 57.5856 22.0057 56.9094 22.4716C56.239 22.9375 55.4123 23.1705 54.4293 23.1705C53.5714 23.1705 52.8129 22.9801 52.1538 22.5994C51.5004 22.2131 50.989 21.6534 50.6197 20.9205C50.2504 20.1818 50.0657 19.2898 50.0657 18.2443V9.90909H53.1509V17.767C53.1509 18.5966 53.3782 19.2557 53.8327 19.7443C54.2873 20.233 54.8839 20.4773 55.6225 20.4773C56.0771 20.4773 56.5174 20.3665 56.9435 20.1449C57.3697 19.9233 57.7191 19.5938 57.9918 19.1562C58.2702 18.7131 58.4094 18.1591 58.4094 17.4943ZM71.2042 9.90909V12.2955H63.6786V9.90909H71.2042ZM65.5366 6.77273H68.6218V19.0625C68.6218 19.4773 68.6843 19.7955 68.8093 20.017C68.94 20.233 69.1104 20.3807 69.3207 20.4602C69.5309 20.5398 69.7638 20.5795 70.0195 20.5795C70.2127 20.5795 70.3888 20.5653 70.5479 20.5369C70.7127 20.5085 70.8377 20.483 70.9229 20.4602L71.4428 22.8722C71.2781 22.929 71.0423 22.9915 70.7354 23.0597C70.4343 23.1278 70.065 23.1676 69.6275 23.179C68.8548 23.2017 68.1587 23.0852 67.5394 22.8295C66.9201 22.5682 66.4286 22.1648 66.065 21.6193C65.707 21.0739 65.5309 20.392 65.5366 19.5739V6.77273ZM79.354 23.2557C78.0756 23.2557 76.9677 22.9744 76.0302 22.4119C75.0927 21.8494 74.3654 21.0625 73.8484 20.0511C73.337 19.0398 73.0813 17.858 73.0813 16.5057C73.0813 15.1534 73.337 13.9687 73.8484 12.9517C74.3654 11.9347 75.0927 11.1449 76.0302 10.5824C76.9677 10.0199 78.0756 9.73864 79.354 9.73864C80.6325 9.73864 81.7404 10.0199 82.6779 10.5824C83.6154 11.1449 84.3398 11.9347 84.8512 12.9517C85.3683 13.9687 85.6268 15.1534 85.6268 16.5057C85.6268 17.858 85.3683 19.0398 84.8512 20.0511C84.3398 21.0625 83.6154 21.8494 82.6779 22.4119C81.7404 22.9744 80.6325 23.2557 79.354 23.2557ZM79.3711 20.7841C80.0643 20.7841 80.6438 20.5937 81.1097 20.2131C81.5756 19.8267 81.9222 19.3097 82.1495 18.6619C82.3825 18.0142 82.4989 17.2926 82.4989 16.4972C82.4989 15.696 82.3825 14.9716 82.1495 14.3239C81.9222 13.6705 81.5756 13.1506 81.1097 12.7642C80.6438 12.3778 80.0643 12.1847 79.3711 12.1847C78.6609 12.1847 78.07 12.3778 77.5984 12.7642C77.1325 13.1506 76.783 13.6705 76.5501 14.3239C76.3228 14.9716 76.2092 15.696 76.2092 16.4972C76.2092 17.2926 76.3228 18.0142 76.5501 18.6619C76.783 19.3097 77.1325 19.8267 77.5984 20.2131C78.07 20.5937 78.6609 20.7841 79.3711 20.7841ZM98.4556 9.90909C98.359 8.9375 97.93 8.16477 97.1687 7.59091C96.4073 7.01705 95.4499 6.73011 94.2965 6.73011C93.484 6.73011 92.7681 6.86932 92.1488 7.14773C91.5352 7.42614 91.0522 7.8125 90.6999 8.30682C90.3533 8.79545 90.18 9.35227 90.18 9.97727C90.18 10.4375 90.2795 10.8409 90.4783 11.1875C90.6772 11.5341 90.9442 11.8324 91.2795 12.0824C91.6204 12.3267 91.9954 12.5369 92.4045 12.7131C92.8192 12.8892 93.2369 13.0369 93.6573 13.1562L95.4982 13.6847C96.055 13.8381 96.6119 14.0341 97.1687 14.2727C97.7255 14.5114 98.234 14.8125 98.6942 15.1761C99.1602 15.5341 99.5323 15.9744 99.8107 16.4972C100.095 17.0142 100.237 17.6364 100.237 18.3636C100.237 19.2955 99.9954 20.1335 99.5124 20.8778C99.0295 21.6222 98.3363 22.2131 97.4329 22.6506C96.5295 23.0824 95.4471 23.2983 94.1857 23.2983C92.9982 23.2983 91.967 23.1023 91.092 22.7102C90.217 22.3125 89.5295 21.7642 89.0295 21.0653C88.5295 20.3665 88.2482 19.5568 88.1857 18.6364H89.8221C89.8789 19.3239 90.1062 19.9062 90.5039 20.3835C90.9016 20.8608 91.4187 21.2244 92.055 21.4744C92.6914 21.7187 93.4016 21.8409 94.1857 21.8409C95.055 21.8409 95.8278 21.696 96.5039 21.4062C97.1857 21.1108 97.7198 20.7017 98.1062 20.179C98.4982 19.6506 98.6942 19.0369 98.6942 18.3381C98.6942 17.7472 98.5408 17.2528 98.234 16.8551C97.9272 16.4517 97.4982 16.1136 96.9471 15.8409C96.4016 15.5682 95.7681 15.3267 95.0465 15.1165L92.9585 14.5028C91.5891 14.0937 90.5266 13.5284 89.771 12.8068C89.0153 12.0852 88.6374 11.1648 88.6374 10.0455C88.6374 9.10795 88.8874 8.28409 89.3874 7.57386C89.8931 6.85795 90.5749 6.30114 91.4329 5.90341C92.2965 5.5 93.2653 5.29829 94.3391 5.29829C95.4244 5.29829 96.3846 5.49716 97.2198 5.89489C98.055 6.29261 98.717 6.84091 99.2056 7.53977C99.6999 8.23295 99.9641 9.02273 99.9982 9.90909H98.4556ZM105.274 14.8182V23H103.757V5.54545H105.274V11.9631H105.41C105.717 11.2869 106.191 10.7472 106.833 10.3438C107.481 9.94034 108.299 9.73864 109.288 9.73864C110.174 9.73864 110.953 9.92045 111.623 10.2841C112.294 10.6477 112.816 11.1847 113.191 11.8949C113.566 12.6051 113.754 13.4801 113.754 14.5199V23H112.228V14.6136C112.228 13.5341 111.927 12.6847 111.325 12.0653C110.728 11.4403 109.922 11.1278 108.904 11.1278C108.206 11.1278 107.583 11.2756 107.038 11.571C106.493 11.8665 106.061 12.2926 105.743 12.8494C105.43 13.4006 105.274 14.0568 105.274 14.8182ZM121.405 23.2983C120.615 23.2983 119.894 23.1449 119.24 22.8381C118.587 22.5256 118.067 22.0767 117.681 21.4915C117.294 20.9006 117.101 20.1847 117.101 19.3438C117.101 18.696 117.223 18.1506 117.468 17.7074C117.712 17.2642 118.059 16.9006 118.507 16.6165C118.956 16.3324 119.488 16.108 120.101 15.9432C120.715 15.7784 121.391 15.6506 122.13 15.5597C122.863 15.4687 123.482 15.3892 123.988 15.321C124.499 15.2528 124.888 15.1449 125.155 14.9972C125.422 14.8494 125.556 14.6108 125.556 14.2812V13.9744C125.556 13.0824 125.289 12.3807 124.755 11.8693C124.226 11.3523 123.465 11.0938 122.471 11.0938C121.527 11.0938 120.757 11.3011 120.161 11.7159C119.57 12.1307 119.155 12.6193 118.917 13.1818L117.476 12.6619C117.772 11.946 118.181 11.375 118.703 10.9489C119.226 10.517 119.811 10.2074 120.459 10.0199C121.107 9.8267 121.763 9.73011 122.428 9.73011C122.928 9.73011 123.448 9.79545 123.988 9.92614C124.533 10.0568 125.039 10.2841 125.505 10.608C125.971 10.9261 126.348 11.3722 126.638 11.946C126.928 12.5142 127.073 13.2358 127.073 14.1108V23H125.556V20.929H125.462C125.28 21.3153 125.01 21.6903 124.652 22.054C124.294 22.4176 123.846 22.7159 123.306 22.9489C122.766 23.1818 122.132 23.2983 121.405 23.2983ZM121.61 21.9091C122.417 21.9091 123.115 21.7301 123.706 21.3722C124.297 21.0142 124.752 20.5398 125.07 19.9489C125.394 19.3523 125.556 18.696 125.556 17.9801V16.0881C125.442 16.196 125.252 16.2926 124.985 16.3778C124.723 16.4631 124.419 16.5398 124.073 16.608C123.732 16.6705 123.391 16.7244 123.05 16.7699C122.709 16.8153 122.402 16.8551 122.13 16.8892C121.391 16.9801 120.76 17.1222 120.238 17.3153C119.715 17.5085 119.314 17.7756 119.036 18.1165C118.757 18.4517 118.618 18.8835 118.618 19.4119C118.618 20.2074 118.902 20.8239 119.471 21.2614C120.039 21.6932 120.752 21.9091 121.61 21.9091ZM131.108 23V9.90909H132.583V11.9205H132.694C132.955 11.2614 133.409 10.7301 134.057 10.3267C134.711 9.91761 135.449 9.71307 136.273 9.71307C136.398 9.71307 136.537 9.71591 136.691 9.72159C136.844 9.72727 136.972 9.73295 137.074 9.73864V11.2812C137.006 11.2699 136.887 11.2528 136.716 11.2301C136.546 11.2074 136.361 11.196 136.162 11.196C135.48 11.196 134.873 11.3409 134.338 11.6307C133.81 11.9148 133.392 12.3097 133.086 12.8153C132.779 13.321 132.625 13.8977 132.625 14.5455V23H131.108ZM144.557 23.2727C143.336 23.2727 142.279 22.9886 141.387 22.4205C140.495 21.8466 139.804 21.054 139.316 20.0426C138.833 19.0256 138.591 17.8551 138.591 16.5312C138.591 15.2131 138.833 14.0426 139.316 13.0199C139.804 11.9915 140.478 11.1875 141.336 10.608C142.199 10.0227 143.196 9.73011 144.327 9.73011C145.037 9.73011 145.722 9.8608 146.381 10.1222C147.04 10.3778 147.631 10.7727 148.154 11.3068C148.682 11.8352 149.1 12.5028 149.407 13.3097C149.713 14.1108 149.867 15.0597 149.867 16.1562V16.9062H139.64V15.5682H148.316C148.316 14.7273 148.145 13.9716 147.804 13.3011C147.469 12.625 147 12.0909 146.398 11.6989C145.801 11.3068 145.111 11.1108 144.327 11.1108C143.498 11.1108 142.767 11.3324 142.137 11.7756C141.506 12.2187 141.012 12.804 140.654 13.5312C140.301 14.2585 140.123 15.054 140.117 15.9176V16.7188C140.117 17.7585 140.296 18.6676 140.654 19.446C141.017 20.2187 141.532 20.8182 142.196 21.2443C142.861 21.6705 143.648 21.8835 144.557 21.8835C145.176 21.8835 145.719 21.7869 146.185 21.5938C146.657 21.4006 147.051 21.142 147.37 20.8182C147.694 20.4886 147.938 20.1278 148.103 19.7358L149.543 20.2045C149.344 20.7557 149.017 21.2642 148.563 21.7301C148.114 22.196 147.551 22.571 146.875 22.8551C146.205 23.1335 145.432 23.2727 144.557 23.2727Z" fill="black"/>
<path d="M25.1133 23H1.11328L12.2761 10.4545L15.6249 13.7273L25.1133 5V23Z" fill="black" stroke="black"/>
</svg>
